<svg xmlns="http://www.w3.org/2000/svg" height="657pt" version="1.1" viewBox="0 -104 657.50119 657" width="657pt">
<g id="surface1">
<path d="M 656.722656 15.25 C 657.09375 14.292969 657.332031 13.285156 657.429688 12.257812 C 657.464844 11.953125 657.488281 11.652344 657.5 11.34375 C 657.523438 10.117188 657.34375 8.894531 656.972656 7.722656 L 656.972656 7.589844 C 656.914062 7.445312 656.804688 7.355469 656.765625 7.226562 C 656.542969 6.589844 656.253906 5.980469 655.917969 5.40625 C 655.667969 5.054688 655.394531 4.710938 655.09375 4.394531 C 654.933594 4.175781 654.757812 3.964844 654.570312 3.765625 C 653.742188 2.871094 652.773438 2.132812 651.699219 1.566406 C 651.597656 1.515625 651.503906 1.496094 651.414062 1.453125 C 650.394531 0.964844 649.308594 0.636719 648.1875 0.484375 C 647.917969 0.484375 647.664062 0.410156 647.390625 0.386719 C 647.113281 0.367188 646.863281 0.25 646.601562 0.25 L 10.957031 0.25 C 6.519531 0.253906 2.523438 2.925781 0.835938 7.023438 C -0.859375 11.113281 0.0742188 15.824219 3.207031 18.960938 L 143.277344 159.03125 L 175.53125 331.097656 C 176.511719 336.507812 181.375 340.328125 186.863281 339.992188 C 188.878906 339.84375 190.8125 339.128906 192.433594 337.925781 L 192.535156 338.0625 L 269.25 285.070312 L 430.566406 446.386719 C 432.640625 448.457031 435.453125 449.605469 438.371094 449.585938 C 438.976562 449.585938 439.585938 449.535156 440.179688 449.4375 C 443.675781 448.855469 446.671875 446.621094 448.222656 443.433594 L 656.453125 16.007812 L 656.523438 15.808594 C 656.605469 15.601562 656.640625 15.429688 656.722656 15.25 Z M 37.414062 22.171875 L 569.175781 22.171875 L 156.589844 141.355469 Z M 166.027344 161.453125 L 461.527344 76.089844 L 193.023438 187.398438 C 189.246094 188.949219 186.632812 192.488281 186.273438 196.558594 L 182.054688 247.203125 Z M 199.148438 306.839844 L 206.214844 221.976562 L 253.546875 269.300781 Z M 435.257812 420.003906 L 216.609375 201.355469 L 624.082031 32.40625 Z M 435.257812 420.003906 " style=" stroke:none;fill-rule:nonzero;fill:rgb(0%,0%,0%);fill-opacity:1;" />
</g>
</svg>